<?xml version="1.0" encoding="UTF-8" standalone="no"?>
<!-- Created with Inkscape (http://www.inkscape.org/) -->

<svg
   xmlns:dc="http://purl.org/dc/elements/1.1/"
   xmlns:cc="http://creativecommons.org/ns#"
   xmlns:rdf="http://www.w3.org/1999/02/22-rdf-syntax-ns#"
   xmlns:svg="http://www.w3.org/2000/svg"
   xmlns="http://www.w3.org/2000/svg"
   xmlns:sodipodi="http://sodipodi.sourceforge.net/DTD/sodipodi-0.dtd"
   xmlns:inkscape="http://www.inkscape.org/namespaces/inkscape"
   width="138.93642mm"
   height="36.4744mm"
   viewBox="0 0 492.29439 129.24"
   id="svg4744"
   version="1.1"
   inkscape:version="0.91 r13725"
   sodipodi:docname="imgBanheiro.svg">
  <defs
     id="defs4746" />
  <sodipodi:namedview
     id="base"
     pagecolor="#ffffff"
     bordercolor="#666666"
     borderopacity="1.0"
     inkscape:pageopacity="0.0"
     inkscape:pageshadow="2"
     inkscape:zoom="0.35"
     inkscape:cx="-126.58023"
     inkscape:cy="171.12031"
     inkscape:document-units="px"
     inkscape:current-layer="layer1"
     showgrid="false"
     fit-margin-top="0"
     fit-margin-left="0"
     fit-margin-right="0"
     fit-margin-bottom="0"
     inkscape:window-width="1366"
     inkscape:window-height="705"
     inkscape:window-x="-8"
     inkscape:window-y="-8"
     inkscape:window-maximized="1" />
  <metadata
     id="metadata4749">
    <rdf:RDF>
      <cc:Work
         rdf:about="">
        <dc:format>image/svg+xml</dc:format>
        <dc:type
           rdf:resource="http://purl.org/dc/dcmitype/StillImage" />
        <dc:title></dc:title>
      </cc:Work>
    </rdf:RDF>
  </metadata>
  <g
     inkscape:label="Layer 1"
     inkscape:groupmode="layer"
     id="layer1"
     transform="translate(-73.814844,-128.17984)">
    <g
       style="font-style:normal;font-variant:normal;font-weight:normal;font-stretch:normal;font-size:180px;line-height:125%;font-family:BigNoodleTitling;-inkscape-font-specification:BigNoodleTitling;letter-spacing:0px;word-spacing:0px;fill:#ffffff;fill-opacity:1;stroke:none;stroke-width:1px;stroke-linecap:butt;stroke-linejoin:miter;stroke-opacity:1"
       id="flowRoot5292">
      <path
         d="m 113.95484,190.99984 q 14.22,3.96 14.22,14.76 l 0,32.4 q 0,19.26 -19.62,19.26 l -34.739996,0 0,-129.24 29.519996,0 q 23.04,0 23.04,23.4 l 0,24.84 q 0,11.16 -12.42,13.68 l 0,0.9 z m -22.859996,50.76 12.959996,0 q 6.84,0 6.84,-5.58 l 0,-28.62 q 0,-9.18 -10.26,-9.18 l -9.539996,0 0,43.38 z m 0,-59.04 8.1,0 q 9.899996,0 9.899996,-9.36 l 0,-20.16 q 0,-9.36 -7.74,-9.36 l -10.259996,0 0,38.88 z"
         id="path5301"
         inkscape:connector-curvature="0"
         style="fill:#ffffff;fill-opacity:1" />
      <path
         d="m 159.10109,257.41984 -17.28,0 0,-107.1 q 0,-22.14 20.7,-22.14 l 12.96,0 q 20.7,0 20.7,22.14 l 0,107.1 -17.28,0 0,-47.34 -19.8,0 0,47.34 z m 19.8,-63 0,-43.02 q 0,-7.56 -7.56,-7.56 l -4.68,0 q -7.56,0 -7.56,7.56 l 0,43.02 19.8,0 z"
         id="path5303"
         inkscape:connector-curvature="0"
         style="fill:#ffffff;fill-opacity:1" />
      <path
         d="m 247.09578,190.63984 0,-62.46 17.28,0 0,129.24 -17.28,0 0,-25.74 -18.54,-58.86 0,84.6 -17.28,0 0,-129.24 17.28,0 18.54,62.46 z"
         id="path5305"
         inkscape:connector-curvature="0"
         style="fill:#ffffff;fill-opacity:1" />
      <path
         d="m 319.05359,257.41984 0,-58.68 -21.24,0 0,58.68 -17.28,0 0,-129.24 17.28,0 0,54.9 21.24,0 0,-54.9 17.28,0 0,129.24 -17.28,0 z"
         id="path5307"
         inkscape:connector-curvature="0"
         style="fill:#ffffff;fill-opacity:1" />
      <path
         d="m 352.60391,257.41984 0,-129.24 42.84,0 0,15.66 -25.56,0 0,39.24 22.68,0 0,15.66 -22.68,0 0,43.02 25.56,0 0,15.66 -42.84,0 z"
         id="path5309"
         inkscape:connector-curvature="0"
         style="fill:#ffffff;fill-opacity:1" />
      <path
         d="m 407.79922,257.41984 0,-129.24 17.28,0 0,129.24 -17.28,0 z"
         id="path5311"
         inkscape:connector-curvature="0"
         style="fill:#ffffff;fill-opacity:1" />
      <path
         d="m 441.19766,128.17984 33.84,0 q 19.8,0 19.8,22.14 l 0,31.86 q 0,16.92 -10.26,21.42 l 12.06,53.82 -16.38,0 -11.34,-52.2 -10.44,0 0,52.2 -17.28,0 0,-129.24 z m 17.28,62.28 11.34,0 q 7.74,0 7.74,-9.36 l 0,-27.9 q 0,-9.36 -7.74,-9.36 l -11.34,0 0,46.62 z"
         id="path5313"
         inkscape:connector-curvature="0"
         style="fill:#ffffff;fill-opacity:1" />
      <path
         d="m 529.02922,257.41984 q -20.88,0 -20.88,-21.96 l 0,-85.14 q 0,-22.14 20.7,-22.14 l 16.56,0 q 20.7,0 20.7,22.14 l 0,85.14 q 0,21.96 -20.88,21.96 l -16.2,0 z m 4.14,-15.66 8.82,0 q 6.84,0 6.84,-7.56 l 0,-82.8 q 0,-7.56 -7.74,-7.56 l -8.1,0 q -7.56,0 -7.56,7.56 l 0,82.8 q 0,7.56 7.74,7.56 z"
         id="path5315"
         inkscape:connector-curvature="0"
         style="fill:#ffffff;fill-opacity:1" />
    </g>
  </g>
</svg>
