<?xml version="1.0" encoding="UTF-8" standalone="no"?>
<!-- Created with Inkscape (http://www.inkscape.org/) -->

<svg
   xmlns:dc="http://purl.org/dc/elements/1.1/"
   xmlns:cc="http://creativecommons.org/ns#"
   xmlns:rdf="http://www.w3.org/1999/02/22-rdf-syntax-ns#"
   xmlns:svg="http://www.w3.org/2000/svg"
   xmlns="http://www.w3.org/2000/svg"
   xmlns:sodipodi="http://sodipodi.sourceforge.net/DTD/sodipodi-0.dtd"
   xmlns:inkscape="http://www.inkscape.org/namespaces/inkscape"
   width="118.23145mm"
   height="36.4744mm"
   viewBox="0 0 418.93032 129.24"
   id="svg6455"
   version="1.1"
   inkscape:version="0.91 r13725"
   sodipodi:docname="imgTextoCozinha.svg">
  <defs
     id="defs6457" />
  <sodipodi:namedview
     id="base"
     pagecolor="#ffffff"
     bordercolor="#666666"
     borderopacity="1.0"
     inkscape:pageopacity="0.0"
     inkscape:pageshadow="2"
     inkscape:zoom="0.35"
     inkscape:cx="-299.34341"
     inkscape:cy="-234.94236"
     inkscape:document-units="px"
     inkscape:current-layer="layer1"
     showgrid="false"
     fit-margin-top="0"
     fit-margin-left="0"
     fit-margin-right="0"
     fit-margin-bottom="0"
     inkscape:window-width="1536"
     inkscape:window-height="801"
     inkscape:window-x="-8"
     inkscape:window-y="-8"
     inkscape:window-maximized="1" />
  <metadata
     id="metadata6460">
    <rdf:RDF>
      <cc:Work
         rdf:about="">
        <dc:format>image/svg+xml</dc:format>
        <dc:type
           rdf:resource="http://purl.org/dc/dcmitype/StillImage" />
        <dc:title></dc:title>
      </cc:Work>
    </rdf:RDF>
  </metadata>
  <g
     inkscape:label="Layer 1"
     inkscape:groupmode="layer"
     id="layer1"
     transform="translate(-112.91484,-168.17984)">
    <g
       style="font-style:normal;font-variant:normal;font-weight:normal;font-stretch:normal;font-size:180px;line-height:125%;font-family:BigNoodleTitling;-inkscape-font-specification:BigNoodleTitling;letter-spacing:0px;word-spacing:0px;fill:#ffffff;fill-opacity:1;stroke:none;stroke-width:1px;stroke-linecap:butt;stroke-linejoin:miter;stroke-opacity:1"
       id="flowRoot7003">
      <path
         d="m 165.47484,267.17984 0,8.28 q 0,21.96 -20.7,21.96 l -11.16,0 q -20.7,0 -20.7,-21.96 l 0,-85.32 q 0,-21.96 20.7,-21.96 l 11.16,0 q 20.7,0 20.7,21.96 l 0,14.58 -17.28,0 0,-13.32 q 0,-7.56 -7.74,-7.56 l -3.42,0 q -6.84,0 -6.84,7.56 l 0,82.8 q 0,7.56 6.84,7.56 l 4.32,0 q 6.84,0 6.84,-7.56 l 0,-7.02 17.28,0 z"
         id="path7012"
         inkscape:connector-curvature="0"
         style="fill:#ffffff;fill-opacity:1" />
      <path
         d="m 198.83391,297.41984 q -20.88,0 -20.88,-21.96 l 0,-85.14 q 0,-22.14 20.7,-22.14 l 16.56,0 q 20.7,0 20.7,22.14 l 0,85.14 q 0,21.96 -20.88,21.96 l -16.2,0 z m 4.14,-15.66 8.82,0 q 6.84,0 6.84,-7.56 l 0,-82.8 q 0,-7.56 -7.74,-7.56 l -8.1,0 q -7.56,0 -7.56,7.56 l 0,82.8 q 0,7.56 7.74,7.56 z"
         id="path7014"
         inkscape:connector-curvature="0"
         style="fill:#ffffff;fill-opacity:1" />
      <path
         d="m 264.60422,281.75984 29.16,0 0,15.66 -47.88,0 -1.26,-6.12 27.18,-107.28 -24.3,0 0,-15.84 39.06,0 3.6,7.38 -25.56,106.2 z"
         id="path7016"
         inkscape:connector-curvature="0"
         style="fill:#ffffff;fill-opacity:1" />
      <path
         d="m 303.65859,297.41984 0,-129.24 17.28,0 0,129.24 -17.28,0 z"
         id="path7018"
         inkscape:connector-curvature="0"
         style="fill:#ffffff;fill-opacity:1" />
      <path
         d="m 372.87703,230.63984 0,-62.46 17.28,0 0,129.24 -17.28,0 0,-25.74 -18.54,-58.86 0,84.6 -17.28,0 0,-129.24 17.28,0 18.54,62.46 z"
         id="path7020"
         inkscape:connector-curvature="0"
         style="fill:#ffffff;fill-opacity:1" />
      <path
         d="m 444.83484,297.41984 0,-58.68 -21.24,0 0,58.68 -17.28,0 0,-129.24 17.28,0 0,54.9 21.24,0 0,-54.9 17.28,0 0,129.24 -17.28,0 z"
         id="path7022"
         inkscape:connector-curvature="0"
         style="fill:#ffffff;fill-opacity:1" />
      <path
         d="m 494.76516,297.41984 -17.28,0 0,-107.1 q 0,-22.14 20.7,-22.14 l 12.96,0 q 20.7,0 20.7,22.14 l 0,107.1 -17.28,0 0,-47.34 -19.8,0 0,47.34 z m 19.8,-63 0,-43.02 q 0,-7.56 -7.56,-7.56 l -4.68,0 q -7.56,0 -7.56,7.56 l 0,43.02 19.8,0 z"
         id="path7024"
         inkscape:connector-curvature="0"
         style="fill:#ffffff;fill-opacity:1" />
    </g>
  </g>
</svg>
