<?xml version="1.0" encoding="UTF-8" standalone="no"?>
<!-- Created with Inkscape (http://www.inkscape.org/) -->

<svg
   xmlns:dc="http://purl.org/dc/elements/1.1/"
   xmlns:cc="http://creativecommons.org/ns#"
   xmlns:rdf="http://www.w3.org/1999/02/22-rdf-syntax-ns#"
   xmlns:svg="http://www.w3.org/2000/svg"
   xmlns="http://www.w3.org/2000/svg"
   xmlns:sodipodi="http://sodipodi.sourceforge.net/DTD/sodipodi-0.dtd"
   xmlns:inkscape="http://www.inkscape.org/namespaces/inkscape"
   width="131.19099mm"
   height="36.4744mm"
   viewBox="0 0 464.84998 129.24"
   id="svg2"
   version="1.1"
   inkscape:version="0.91 r13725"
   sodipodi:docname="imgTextoGaragem.svg">
  <defs
     id="defs4" />
  <sodipodi:namedview
     id="base"
     pagecolor="#ffffff"
     bordercolor="#666666"
     borderopacity="1.0"
     inkscape:pageopacity="0.0"
     inkscape:pageshadow="2"
     inkscape:zoom="0.35"
     inkscape:cx="-343.62802"
     inkscape:cy="-283.5124"
     inkscape:document-units="px"
     inkscape:current-layer="layer1"
     showgrid="false"
     fit-margin-top="0"
     fit-margin-left="0"
     fit-margin-right="0"
     fit-margin-bottom="0"
     inkscape:window-width="1536"
     inkscape:window-height="801"
     inkscape:window-x="-8"
     inkscape:window-y="-8"
     inkscape:window-maximized="1" />
  <metadata
     id="metadata7">
    <rdf:RDF>
      <cc:Work
         rdf:about="">
        <dc:format>image/svg+xml</dc:format>
        <dc:type
           rdf:resource="http://purl.org/dc/dcmitype/StillImage" />
        <dc:title></dc:title>
      </cc:Work>
    </rdf:RDF>
  </metadata>
  <g
     inkscape:label="Layer 1"
     inkscape:groupmode="layer"
     id="layer1"
     transform="translate(-121.48516,-122.46695)">
    <g
       style="font-style:normal;font-variant:normal;font-weight:normal;font-stretch:normal;font-size:180px;line-height:125%;font-family:BigNoodleTitling;-inkscape-font-specification:BigNoodleTitling;letter-spacing:0px;word-spacing:0px;fill:#ffffff;fill-opacity:1;stroke:none;stroke-width:1px;stroke-linecap:butt;stroke-linejoin:miter;stroke-opacity:1"
       id="flowRoot4144">
      <path
         d="m 149.02516,204.36695 0,-15.66 26.28,0 0,63 -33.84,0 q -19.98,0 -19.98,-21.78 l 0,-85.32 q 0,-22.14 19.98,-22.14 l 11.88,0 q 21.96,0 21.96,22.5 l 0,14.04 -17.28,0 0,-11.52 q 0,-9.36 -7.38,-9.36 l -4.32,0 q -7.56,0 -7.56,9.36 l 0,79.2 q 0,9.36 7.56,9.36 l 11.7,0 0,-31.68 -9,0 z"
         id="path4153"
         inkscape:connector-curvature="0"
         style="fill:#ffffff;fill-opacity:1" />
      <path
         d="m 205.56203,251.70695 -17.28,0 0,-107.1 q 0,-22.14 20.7,-22.14 l 12.96,0 q 20.7,0 20.7,22.14 l 0,107.1 -17.28,0 0,-47.34 -19.8,0 0,47.34 z m 19.8,-63 0,-43.02 q 0,-7.56 -7.56,-7.56 l -4.68,0 q -7.56,0 -7.56,7.56 l 0,43.02 19.8,0 z"
         id="path4155"
         inkscape:connector-curvature="0"
         style="fill:#ffffff;fill-opacity:1" />
      <path
         d="m 257.73672,122.46695 33.84,0 q 19.8,0 19.8,22.14 l 0,31.86 q 0,16.92 -10.26,21.42 l 12.06,53.82 -16.38,0 -11.34,-52.2 -10.44,0 0,52.2 -17.28,0 0,-129.24 z m 17.28,62.28 11.34,0 q 7.74,0 7.74,-9.36 l 0,-27.9 q 0,-9.36 -7.74,-9.36 l -11.34,0 0,46.62 z"
         id="path4157"
         inkscape:connector-curvature="0"
         style="fill:#ffffff;fill-opacity:1" />
      <path
         d="m 341.96828,251.70695 -17.28,0 0,-107.1 q 0,-22.14 20.7,-22.14 l 12.96,0 q 20.7,0 20.7,22.14 l 0,107.1 -17.28,0 0,-47.34 -19.8,0 0,47.34 z m 19.8,-63 0,-43.02 q 0,-7.56 -7.56,-7.56 l -4.68,0 q -7.56,0 -7.56,7.56 l 0,43.02 19.8,0 z"
         id="path4159"
         inkscape:connector-curvature="0"
         style="fill:#ffffff;fill-opacity:1" />
      <path
         d="m 420.78297,204.36695 0,-15.66 26.28,0 0,63 -33.84,0 q -19.98,0 -19.98,-21.78 l 0,-85.32 q 0,-22.14 19.98,-22.14 l 11.88,0 q 21.96,0 21.96,22.5 l 0,14.04 -17.28,0 0,-11.52 q 0,-9.36 -7.38,-9.36 l -4.32,0 q -7.56,0 -7.56,9.36 l 0,79.2 q 0,9.36 7.56,9.36 l 11.7,0 0,-31.68 -9,0 z"
         id="path4161"
         inkscape:connector-curvature="0"
         style="fill:#ffffff;fill-opacity:1" />
      <path
         d="m 460.93984,251.70695 0,-129.24 42.84,0 0,15.66 -25.56,0 0,39.24 22.68,0 0,15.66 -22.68,0 0,43.02 25.56,0 0,15.66 -42.84,0 z"
         id="path4163"
         inkscape:connector-curvature="0"
         style="fill:#ffffff;fill-opacity:1" />
      <path
         d="m 551.23516,198.42695 16.02,-75.96 19.08,0 0,129.24 -17.28,0 1.8,-84.6 -12.96,61.2 -13.32,0 -12.96,-61.2 1.8,84.6 -17.28,0 0,-129.24 19.08,0 16.02,75.96 z"
         id="path4165"
         inkscape:connector-curvature="0"
         style="fill:#ffffff;fill-opacity:1" />
    </g>
  </g>
</svg>
