<?xml version="1.0" encoding="UTF-8" standalone="no"?>
<!-- Created with Inkscape (http://www.inkscape.org/) -->

<svg
   xmlns:dc="http://purl.org/dc/elements/1.1/"
   xmlns:cc="http://creativecommons.org/ns#"
   xmlns:rdf="http://www.w3.org/1999/02/22-rdf-syntax-ns#"
   xmlns:svg="http://www.w3.org/2000/svg"
   xmlns="http://www.w3.org/2000/svg"
   xmlns:sodipodi="http://sodipodi.sourceforge.net/DTD/sodipodi-0.dtd"
   xmlns:inkscape="http://www.inkscape.org/namespaces/inkscape"
   width="76.677902mm"
   height="36.4744mm"
   viewBox="0 0 271.69336 129.24"
   id="svg2"
   version="1.1"
   inkscape:version="0.91 r13725"
   sodipodi:docname="imgHome.svg">
  <defs
     id="defs4" />
  <sodipodi:namedview
     id="base"
     pagecolor="#ffffff"
     bordercolor="#666666"
     borderopacity="1.0"
     inkscape:pageopacity="0.0"
     inkscape:pageshadow="2"
     inkscape:zoom="0.35"
     inkscape:cx="-548.78426"
     inkscape:cy="93.629899"
     inkscape:document-units="px"
     inkscape:current-layer="layer1"
     showgrid="false"
     fit-margin-top="0"
     fit-margin-left="0"
     fit-margin-right="-0.5"
     fit-margin-bottom="0"
     inkscape:window-width="1366"
     inkscape:window-height="705"
     inkscape:window-x="-8"
     inkscape:window-y="-8"
     inkscape:window-maximized="1" />
  <metadata
     id="metadata7">
    <rdf:RDF>
      <cc:Work
         rdf:about="">
        <dc:format>image/svg+xml</dc:format>
        <dc:type
           rdf:resource="http://purl.org/dc/dcmitype/StillImage" />
        <dc:title></dc:title>
      </cc:Work>
    </rdf:RDF>
  </metadata>
  <g
     inkscape:label="Layer 1"
     inkscape:groupmode="layer"
     id="layer1"
     transform="translate(-93.814844,-156.7521)">
    <g
       style="font-style:normal;font-variant:normal;font-weight:normal;font-stretch:normal;font-size:180px;line-height:125%;font-family:BigNoodleTitling;-inkscape-font-specification:BigNoodleTitling;letter-spacing:0px;word-spacing:0px;fill:#ffffff;fill-opacity:1;stroke:none;stroke-width:1px;stroke-linecap:butt;stroke-linejoin:miter;stroke-opacity:1"
       id="flowRoot4136">
      <path
         d="m 132.33484,285.9921 0,-58.68 -21.24,0 0,58.68 -17.279996,0 0,-129.24 17.279996,0 0,54.9 21.24,0 0,-54.9 17.28,0 0,129.24 -17.28,0 z"
         id="path4145"
         inkscape:connector-curvature="0"
         style="fill:#ffffff;fill-opacity:1" />
      <path
         d="m 185.86516,285.9921 q -20.88,0 -20.88,-21.96 l 0,-85.14 q 0,-22.14 20.7,-22.14 l 16.56,0 q 20.7,0 20.7,22.14 l 0,85.14 q 0,21.96 -20.88,21.96 l -16.2,0 z m 4.14,-15.66 8.82,0 q 6.84,0 6.84,-7.56 l 0,-82.8 q 0,-7.56 -7.74,-7.56 l -8.1,0 q -7.56,0 -7.56,7.56 l 0,82.8 q 0,7.56 7.74,7.56 z"
         id="path4147"
         inkscape:connector-curvature="0"
         style="fill:#ffffff;fill-opacity:1" />
      <path
         d="m 273.05547,232.7121 16.02,-75.96 19.08,0 0,129.24 -17.28,0 1.8,-84.6 -12.96,61.2 -13.32,0 -12.96,-61.2 1.8,84.6 -17.28,0 0,-129.24 19.08,0 16.02,75.96 z"
         id="path4149"
         inkscape:connector-curvature="0"
         style="fill:#ffffff;fill-opacity:1" />
      <path
         d="m 324.43984,285.9921 0,-129.24 42.84,0 0,15.66 -25.56,0 0,39.24 22.68,0 0,15.66 -22.68,0 0,43.02 25.56,0 0,15.66 -42.84,0 z"
         id="path4151"
         inkscape:connector-curvature="0"
         style="fill:#ffffff;fill-opacity:1" />
    </g>
  </g>
</svg>
