<?xml version="1.0" encoding="UTF-8" standalone="no"?>
<!-- Created with Inkscape (http://www.inkscape.org/) -->

<svg
   xmlns:dc="http://purl.org/dc/elements/1.1/"
   xmlns:cc="http://creativecommons.org/ns#"
   xmlns:rdf="http://www.w3.org/1999/02/22-rdf-syntax-ns#"
   xmlns:svg="http://www.w3.org/2000/svg"
   xmlns="http://www.w3.org/2000/svg"
   xmlns:sodipodi="http://sodipodi.sourceforge.net/DTD/sodipodi-0.dtd"
   xmlns:inkscape="http://www.inkscape.org/namespaces/inkscape"
   width="169.0751mm"
   height="36.4744mm"
   viewBox="0 0 599.08501 129.24"
   id="svg4167"
   version="1.1"
   inkscape:version="0.91 r13725"
   sodipodi:docname="imgTextoLavanderia.svg">
  <defs
     id="defs4169" />
  <sodipodi:namedview
     id="base"
     pagecolor="#ffffff"
     bordercolor="#666666"
     borderopacity="1.0"
     inkscape:pageopacity="0.0"
     inkscape:pageshadow="2"
     inkscape:zoom="0.35"
     inkscape:cx="-327.38544"
     inkscape:cy="-194.94236"
     inkscape:document-units="px"
     inkscape:current-layer="layer1"
     showgrid="false"
     fit-margin-top="0"
     fit-margin-left="0"
     fit-margin-right="0"
     fit-margin-bottom="0"
     inkscape:window-width="1536"
     inkscape:window-height="801"
     inkscape:window-x="-8"
     inkscape:window-y="-8"
     inkscape:window-maximized="1" />
  <metadata
     id="metadata4172">
    <rdf:RDF>
      <cc:Work
         rdf:about="">
        <dc:format>image/svg+xml</dc:format>
        <dc:type
           rdf:resource="http://purl.org/dc/dcmitype/StillImage" />
        <dc:title></dc:title>
      </cc:Work>
    </rdf:RDF>
  </metadata>
  <g
     inkscape:label="Layer 1"
     inkscape:groupmode="layer"
     id="layer1"
     transform="translate(-105.24258,-208.17984)">
    <g
       style="font-style:normal;font-variant:normal;font-weight:normal;font-stretch:normal;font-size:180px;line-height:125%;font-family:BigNoodleTitling;-inkscape-font-specification:BigNoodleTitling;letter-spacing:0px;word-spacing:0px;fill:#ffffff;fill-opacity:1;stroke:none;stroke-width:1px;stroke-linecap:butt;stroke-linejoin:miter;stroke-opacity:1"
       id="flowRoot4715">
      <path
         d="m 146.28258,337.41984 -41.04,0 0,-129.24 17.28,0 0,113.58 23.76,0 0,15.66 z"
         id="path4724"
         inkscape:connector-curvature="0"
         style="fill:#ffffff;fill-opacity:1" />
      <path
         d="m 172.59914,337.41984 -17.28,0 0,-107.1 q 0,-22.14 20.7,-22.14 l 12.96,0 q 20.7,0 20.7,22.14 l 0,107.1 -17.28,0 0,-47.34 -19.8,0 0,47.34 z m 19.8,-63 0,-43.02 q 0,-7.56 -7.56,-7.56 l -4.68,0 q -7.56,0 -7.56,7.56 l 0,43.02 19.8,0 z"
         id="path4726"
         inkscape:connector-curvature="0"
         style="fill:#ffffff;fill-opacity:1" />
      <path
         d="m 278.99602,208.17984 -20.88,129.24 -20.52,0 -20.88,-129.24 17.1,0 14.04,98.64 14.04,-98.64 17.1,0 z"
         id="path4728"
         inkscape:connector-curvature="0"
         style="fill:#ffffff;fill-opacity:1" />
      <path
         d="m 303.38039,337.41984 -17.28,0 0,-107.1 q 0,-22.14 20.7,-22.14 l 12.96,0 q 20.7,0 20.7,22.14 l 0,107.1 -17.28,0 0,-47.34 -19.8,0 0,47.34 z m 19.8,-63 0,-43.02 q 0,-7.56 -7.56,-7.56 l -4.68,0 q -7.56,0 -7.56,7.56 l 0,43.02 19.8,0 z"
         id="path4730"
         inkscape:connector-curvature="0"
         style="fill:#ffffff;fill-opacity:1" />
      <path
         d="m 391.37508,270.63984 0,-62.46 17.28,0 0,129.24 -17.28,0 0,-25.74 -18.54,-58.86 0,84.6 -17.28,0 0,-129.24 17.28,0 18.54,62.46 z"
         id="path4732"
         inkscape:connector-curvature="0"
         style="fill:#ffffff;fill-opacity:1" />
      <path
         d="m 424.81289,337.41984 0,-129.24 30.06,0 q 24.3,0 24.3,24.84 l 0,85.68 q 0,18.72 -20.7,18.72 l -33.66,0 z m 17.28,-15.66 12.96,0 q 6.84,0 6.84,-5.76 l 0,-82.8 q 0,-9.36 -7.74,-9.36 l -12.06,0 0,97.92 z"
         id="path4734"
         inkscape:connector-curvature="0"
         style="fill:#ffffff;fill-opacity:1" />
      <path
         d="m 494.42227,337.41984 0,-129.24 42.84,0 0,15.66 -25.56,0 0,39.24 22.68,0 0,15.66 -22.68,0 0,43.02 25.56,0 0,15.66 -42.84,0 z"
         id="path4736"
         inkscape:connector-curvature="0"
         style="fill:#ffffff;fill-opacity:1" />
      <path
         d="m 549.61758,208.17984 33.84,0 q 19.8,0 19.8,22.14 l 0,31.86 q 0,16.92 -10.26,21.42 l 12.06,53.82 -16.38,0 -11.34,-52.2 -10.44,0 0,52.2 -17.28,0 0,-129.24 z m 17.28,62.28 11.34,0 q 7.74,0 7.74,-9.36 l 0,-27.9 q 0,-9.36 -7.74,-9.36 l -11.34,0 0,46.62 z"
         id="path4738"
         inkscape:connector-curvature="0"
         style="fill:#ffffff;fill-opacity:1" />
      <path
         d="m 617.46914,337.41984 0,-129.24 17.28,0 0,129.24 -17.28,0 z"
         id="path4740"
         inkscape:connector-curvature="0"
         style="fill:#ffffff;fill-opacity:1" />
      <path
         d="m 667.24758,337.41984 -17.28,0 0,-107.1 q 0,-22.14 20.7,-22.14 l 12.96,0 q 20.7,0 20.7,22.14 l 0,107.1 -17.28,0 0,-47.34 -19.8,0 0,47.34 z m 19.8,-63 0,-43.02 q 0,-7.56 -7.56,-7.56 l -4.68,0 q -7.56,0 -7.56,7.56 l 0,43.02 19.8,0 z"
         id="path4742"
         inkscape:connector-curvature="0"
         style="fill:#ffffff;fill-opacity:1" />
    </g>
  </g>
</svg>
