<?xml version="1.0" encoding="UTF-8" standalone="no"?>
<!-- Created with Inkscape (http://www.inkscape.org/) -->

<svg
   xmlns:dc="http://purl.org/dc/elements/1.1/"
   xmlns:cc="http://creativecommons.org/ns#"
   xmlns:rdf="http://www.w3.org/1999/02/22-rdf-syntax-ns#"
   xmlns:svg="http://www.w3.org/2000/svg"
   xmlns="http://www.w3.org/2000/svg"
   xmlns:sodipodi="http://sodipodi.sourceforge.net/DTD/sodipodi-0.dtd"
   xmlns:inkscape="http://www.inkscape.org/namespaces/inkscape"
   width="67.586227mm"
   height="36.4744mm"
   viewBox="0 0 239.47876 129.24"
   id="svg5317"
   version="1.1"
   inkscape:version="0.91 r13725"
   sodipodi:docname="imgTextoSala.svg">
  <defs
     id="defs5319" />
  <sodipodi:namedview
     id="base"
     pagecolor="#ffffff"
     bordercolor="#666666"
     borderopacity="1.0"
     inkscape:pageopacity="0.0"
     inkscape:pageshadow="2"
     inkscape:zoom="0.35"
     inkscape:cx="-339.87059"
     inkscape:cy="-240.65525"
     inkscape:document-units="px"
     inkscape:current-layer="layer1"
     showgrid="false"
     fit-margin-top="0"
     fit-margin-left="0"
     fit-margin-right="0"
     fit-margin-bottom="0"
     inkscape:window-width="1536"
     inkscape:window-height="801"
     inkscape:window-x="-8"
     inkscape:window-y="-8"
     inkscape:window-maximized="1" />
  <metadata
     id="metadata5322">
    <rdf:RDF>
      <cc:Work
         rdf:about="">
        <dc:format>image/svg+xml</dc:format>
        <dc:type
           rdf:resource="http://purl.org/dc/dcmitype/StillImage" />
        <dc:title></dc:title>
      </cc:Work>
    </rdf:RDF>
  </metadata>
  <g
     inkscape:label="Layer 1"
     inkscape:groupmode="layer"
     id="layer1"
     transform="translate(-117.72773,-162.46695)">
    <g
       style="font-style:normal;font-variant:normal;font-weight:normal;font-stretch:normal;font-size:180px;line-height:125%;font-family:BigNoodleTitling;-inkscape-font-specification:BigNoodleTitling;letter-spacing:0px;word-spacing:0px;fill:#ffffff;fill-opacity:1;stroke:none;stroke-width:1px;stroke-linecap:butt;stroke-linejoin:miter;stroke-opacity:1"
       id="flowRoot5865">
      <path
         d="m 152.64773,197.20695 0,-11.34 q 0,-7.74 -7.56,-7.74 l -2.7,0 q -7.38,0 -7.38,7.74 l 0,21.42 q 0,3.6 1.44,4.86 1.44,1.26 4.68,3.24 l 16.38,8.82 q 5.4,3.06 7.56,4.86 2.34,1.62 3.6,4.14 1.26,2.34 1.26,9.18 l 0,27.54 q 0,21.78 -20.88,21.78 l -10.62,0 q -20.7,0 -20.7,-23.76 l 0,-6.48 17.28,0 0,7.02 q 0,7.56 7.74,7.56 l 3.06,0 q 6.84,0 6.84,-7.56 l 0,-21.96 q 0,-3.6 -1.44,-4.86 -1.44,-1.26 -4.68,-3.24 l -16.38,-9.18 q -5.4,-2.88 -7.92,-4.86 -2.34,-1.98 -3.42,-5.04 -1.08,-3.24 -1.08,-8.28 l 0,-26.46 q 0,-22.14 20.7,-22.14 l 10.8,0 q 20.7,0 20.7,22.14 l 0,12.6 -17.28,0 z"
         id="path5874"
         inkscape:connector-curvature="0"
         style="fill:#ffffff;fill-opacity:1" />
      <path
         d="m 200.59523,291.70695 -17.28,0 0,-107.1 q 0,-22.14 20.7,-22.14 l 12.96,0 q 20.7,0 20.7,22.14 l 0,107.1 -17.28,0 0,-47.34 -19.8,0 0,47.34 z m 19.8,-63 0,-43.02 q 0,-7.56 -7.56,-7.56 l -4.68,0 q -7.56,0 -7.56,7.56 l 0,43.02 19.8,0 z"
         id="path5876"
         inkscape:connector-curvature="0"
         style="fill:#ffffff;fill-opacity:1" />
      <path
         d="m 293.80992,291.70695 -41.04,0 0,-129.24 17.28,0 0,113.58 23.76,0 0,15.66 z"
         id="path5878"
         inkscape:connector-curvature="0"
         style="fill:#ffffff;fill-opacity:1" />
      <path
         d="m 320.12648,291.70695 -17.28,0 0,-107.1 q 0,-22.14 20.7,-22.14 l 12.96,0 q 20.7,0 20.7,22.14 l 0,107.1 -17.28,0 0,-47.34 -19.8,0 0,47.34 z m 19.8,-63 0,-43.02 q 0,-7.56 -7.56,-7.56 l -4.68,0 q -7.56,0 -7.56,7.56 l 0,43.02 19.8,0 z"
         id="path5880"
         inkscape:connector-curvature="0"
         style="fill:#ffffff;fill-opacity:1" />
    </g>
  </g>
</svg>
