<?xml version="1.0" encoding="UTF-8" standalone="no"?>
<svg
   xmlns:dc="http://purl.org/dc/elements/1.1/"
   xmlns:cc="http://creativecommons.org/ns#"
   xmlns:rdf="http://www.w3.org/1999/02/22-rdf-syntax-ns#"
   xmlns:svg="http://www.w3.org/2000/svg"
   xmlns="http://www.w3.org/2000/svg"
   xmlns:sodipodi="http://sodipodi.sourceforge.net/DTD/sodipodi-0.dtd"
   xmlns:inkscape="http://www.inkscape.org/namespaces/inkscape"
   height="25.312603"
   width="26"
   viewBox="0 0 26 25.312603"
   id="svg2"
   version="1.1"
   inkscape:version="0.91 r13725"
   sodipodi:docname="imgBanheiro.svg">
  <metadata
     id="metadata11">
    <rdf:RDF>
      <cc:Work
         rdf:about="">
        <dc:format>image/svg+xml</dc:format>
        <dc:type
           rdf:resource="http://purl.org/dc/dcmitype/StillImage" />
        <dc:title></dc:title>
      </cc:Work>
    </rdf:RDF>
  </metadata>
  <defs
     id="defs9" />
  <sodipodi:namedview
     pagecolor="#ffffff"
     bordercolor="#666666"
     borderopacity="1"
     objecttolerance="10"
     gridtolerance="10"
     guidetolerance="10"
     inkscape:pageopacity="0"
     inkscape:pageshadow="2"
     inkscape:window-width="1366"
     inkscape:window-height="705"
     id="namedview7"
     showgrid="false"
     fit-margin-top="0"
     fit-margin-left="0"
     fit-margin-right="0"
     fit-margin-bottom="0"
     inkscape:zoom="4.9166667"
     inkscape:cx="-11.813559"
     inkscape:cy="12.452911"
     inkscape:window-x="-8"
     inkscape:window-y="-8"
     inkscape:window-maximized="1"
     inkscape:current-layer="svg2" />
  <g
     id="g4"
     transform="translate(-11,-11.343698)">
    <path
       id="path1"
       transform="matrix(0.81249961,0,0,0.81249961,11,11.343698)"
       d="m 24.894261,15.994017 c -0.221006,0 -0.96203,0.062 -1.24904,0.853997 l -4.321139,11.926977 c -0.039,0.107001 -0.004,0.192 0.033,0.243 0.035,0.051 0.117005,0.136 0.27001,0.136 l 10.050322,0 c 0.150005,0 0.232008,-0.082 0.268009,-0.131 0.037,-0.05 0.074,-0.133 0.04,-0.239001 L 26.161302,16.890014 c -0.212006,-0.660997 -0.793024,-0.895997 -1.267041,-0.895997 z m -22.5742496,0 c -0.153002,0 -0.235003,0.085 -0.2710034,0.134999 -0.037,0.052 -0.072001,0.136 -0.034,0.241999 l 4.3230486,11.929977 c 0.287003,0.791998 1.0280118,0.852999 1.2490143,0.852999 0.4730053,0 1.0540119,-0.235001 1.2660141,-0.894998 l 3.824044,-11.895977 c 0.035,-0.105 -0.003,-0.186999 -0.04,-0.237999 -0.035,-0.049 -0.117002,-0.131 -0.267003,-0.131 z M 24.894261,13.994021 c 1.480048,0 2.726088,0.895998 3.171103,2.283995 l 3.824123,11.894976 c 0.224007,0.696999 0.104002,1.435997 -0.32801,2.028996 -0.436014,0.597 -1.140038,0.951999 -1.884062,0.951999 l -10.050322,0 c -0.761024,0 -1.475048,-0.368999 -1.908062,-0.986999 -0.425012,-0.605999 -0.527017,-1.380997 -0.275009,-2.073996 l 4.320139,-11.926975 c 0.479015,-1.318998 1.707054,-2.171996 3.1301,-2.171996 z m -22.5742496,0 10.0501136,0 c 0.745008,0 1.449016,0.355999 1.884022,0.951998 0.431004,0.592998 0.551006,1.331997 0.328003,2.027995 l -3.824044,11.895977 c -0.446005,1.387996 -1.6910183,2.283996 -3.1710351,2.283996 -1.4230165,0 -2.6520302,-0.851999 -3.1300356,-2.171997 L 0.13498652,17.054014 C -0.11601651,16.361017 -0.01301539,15.587017 0.41098946,14.981018 0.84399432,14.36302 1.5580024,13.994021 2.3200114,13.994021 Z M 7.3439932,2.0000306 c -2.3120124,-2e-7 -4.1909806,1.9049724 -4.1909803,4.2479952 -3e-7,2.3430228 1.8789679,4.2479962 4.1909803,4.2479962 2.3120127,0 4.1920188,-1.9049734 4.1920188,-4.2479962 0,-2.3430228 -1.8800061,-4.2479954 -4.1920188,-4.2479952 z m 17.3090558,-2.58e-5 c -2.312001,-1e-7 -4.192002,1.9050041 -4.192002,4.2480095 0,2.3430057 1.880001,4.2480097 4.192002,4.2480097 2.312002,0 4.191001,-1.905004 4.191001,-4.2480097 0,-2.3430054 -1.878999,-4.2480096 -4.191001,-4.2480095 z M 7.3439932,2.6226057e-5 C 10.757996,2.5937086e-5 13.536012,2.8030108 13.536012,6.2480258 c 0,3.4450154 -2.778016,6.2479992 -6.1920188,6.2479992 -3.4140027,0 -6.1909812,-2.8029838 -6.1909813,-6.2479992 C 1.153012,2.8030108 3.9299905,2.5937086e-5 7.3439932,2.6226057e-5 Z M 24.653049,0 c 3.414001,1.6256217e-7 6.191003,2.8030065 6.191003,6.2480143 0,3.4450078 -2.777002,6.2480137 -6.191003,6.2480137 -3.414,0 -6.192002,-2.8030059 -6.192002,-6.2480137 C 18.461047,2.8030065 21.239049,1.6256217e-7 24.653049,0 Z"
       inkscape:connector-curvature="0"
       style="fill:#ffffff" />
  </g>
</svg>
