<?xml version="1.0" encoding="UTF-8" standalone="no"?>
<svg
   xmlns:dc="http://purl.org/dc/elements/1.1/"
   xmlns:cc="http://creativecommons.org/ns#"
   xmlns:rdf="http://www.w3.org/1999/02/22-rdf-syntax-ns#"
   xmlns:svg="http://www.w3.org/2000/svg"
   xmlns="http://www.w3.org/2000/svg"
   xmlns:sodipodi="http://sodipodi.sourceforge.net/DTD/sodipodi-0.dtd"
   xmlns:inkscape="http://www.inkscape.org/namespaces/inkscape"
   height="26"
   width="17.875"
   viewBox="0 0 17.875 26"
   id="svg2"
   version="1.1"
   inkscape:version="0.91 r13725"
   sodipodi:docname="imgCozinha.svg">
  <metadata
     id="metadata11">
    <rdf:RDF>
      <cc:Work
         rdf:about="">
        <dc:format>image/svg+xml</dc:format>
        <dc:type
           rdf:resource="http://purl.org/dc/dcmitype/StillImage" />
        <dc:title></dc:title>
      </cc:Work>
    </rdf:RDF>
  </metadata>
  <defs
     id="defs9" />
  <sodipodi:namedview
     pagecolor="#ffffff"
     bordercolor="#666666"
     borderopacity="1"
     objecttolerance="10"
     gridtolerance="10"
     guidetolerance="10"
     inkscape:pageopacity="0"
     inkscape:pageshadow="2"
     inkscape:window-width="1366"
     inkscape:window-height="705"
     id="namedview7"
     showgrid="false"
     fit-margin-top="0"
     fit-margin-left="0"
     fit-margin-right="0"
     fit-margin-bottom="0"
     inkscape:zoom="4.9166667"
     inkscape:cx="-15.876059"
     inkscape:cy="12.79661"
     inkscape:window-x="-8"
     inkscape:window-y="-8"
     inkscape:window-maximized="1"
     inkscape:current-layer="svg2" />
  <g
     id="g4"
     transform="translate(-15.0625,-11)">
    <path
       id="path1"
       transform="matrix(0.8125,0,0,0.8125,15.0625,11)"
       d="m 4.5,15 1.5,0 0,1 -1,0 0,4 1,0 0,1 -1.5,0 C 4.224,21 4,20.775999 4,20.5 l 0,-5 C 4,15.224 4.224,15 4.5,15 Z M 2,13 2,30 20,30 20,13 Z M 4.5,4 6,4 6,5 5,5 5,8 6,8 6,9 4.5,9 C 4.224,9 4,8.776 4,8.5 l 0,-4 C 4,4.224 4.224,4 4.5,4 Z M 2,2 2,11 20,11 20,2 Z M 1,0 21,0 c 0.553009,0 1,0.44702148 1,1 l 0,30 c 0,0.552979 -0.446991,1 -1,1 L 1,32 C 0.44699097,32 0,31.552979 0,31 L 0,1 C 0,0.44702148 0.44699097,0 1,0 Z"
       inkscape:connector-curvature="0"
       style="fill:#ffffff" />
  </g>
</svg>
