<?xml version="1.0" encoding="UTF-8" standalone="no"?>
<svg
   xmlns:dc="http://purl.org/dc/elements/1.1/"
   xmlns:cc="http://creativecommons.org/ns#"
   xmlns:rdf="http://www.w3.org/1999/02/22-rdf-syntax-ns#"
   xmlns:svg="http://www.w3.org/2000/svg"
   xmlns="http://www.w3.org/2000/svg"
   xmlns:sodipodi="http://sodipodi.sourceforge.net/DTD/sodipodi-0.dtd"
   xmlns:inkscape="http://www.inkscape.org/namespaces/inkscape"
   height="25.751339"
   width="26"
   viewBox="0 0 26 25.751339"
   id="svg2"
   version="1.1"
   inkscape:version="0.91 r13725"
   sodipodi:docname="imgGaragem.svg">
  <metadata
     id="metadata11">
    <rdf:RDF>
      <cc:Work
         rdf:about="">
        <dc:format>image/svg+xml</dc:format>
        <dc:type
           rdf:resource="http://purl.org/dc/dcmitype/StillImage" />
        <dc:title></dc:title>
      </cc:Work>
    </rdf:RDF>
  </metadata>
  <defs
     id="defs9" />
  <sodipodi:namedview
     pagecolor="#ffffff"
     bordercolor="#666666"
     borderopacity="1"
     objecttolerance="10"
     gridtolerance="10"
     guidetolerance="10"
     inkscape:pageopacity="0"
     inkscape:pageshadow="2"
     inkscape:window-width="1366"
     inkscape:window-height="705"
     id="namedview7"
     showgrid="false"
     fit-margin-top="0"
     fit-margin-left="0"
     fit-margin-right="0"
     fit-margin-bottom="0"
     inkscape:zoom="4.9166667"
     inkscape:cx="-11.813559"
     inkscape:cy="12.67228"
     inkscape:window-x="-8"
     inkscape:window-y="-8"
     inkscape:window-maximized="1"
     inkscape:current-layer="svg2" />
  <g
     id="g4"
     transform="translate(-11,-11.12433)">
    <path
       id="path1"
       transform="matrix(0.81249884,0,0,0.81249884,11,11.12433)"
       d="m 25.583003,22.060012 c 0.827999,0 1.5,0.672001 1.5,1.5 0,0.828001 -0.672001,1.5 -1.5,1.5 -0.828001,0 -1.5,-0.671999 -1.5,-1.5 0,-0.827999 0.671999,-1.5 1.5,-1.5 z m -19.0309946,0 c 0.8280001,0 1.5,0.672001 1.5,1.5 0,0.828001 -0.6719999,1.5 -1.5,1.5 -0.8280001,0 -1.5,-0.671999 -1.5,-1.5 0,-0.827999 0.6719999,-1.5 1.5,-1.5 z m -1.5520082,-1.36601 c -1.6540003,0 -3.0000002,1.346 -3.0000002,3 0,1.653999 1.3459999,3 3.0000002,3 l 22.0000008,0 c 1.653999,0 3,-1.346001 3,-3 0,-1.654 -1.346001,-3 -3,-3 z M 12.266,12.694003 c -3.347032,0 -6.0896835,2.638053 -6.2578306,5.943127 l -0.00144,0.05687 19.9865486,0 -0.0014,-0.05687 c -0.168147,-3.305074 -2.910769,-5.943127 -6.256833,-5.943127 z m 0,-1.999996 7.468999,0 c 4.486782,0 8.148951,3.592055 8.262297,8.051962 l 6.12e-4,0.04828 0.0085,0.0015 c 2.276298,0.467016 3.993595,2.485861 3.993595,4.898236 0,2.757 -2.243,5 -5,5 l -0.02194,0 0,3 -5.008966,0 0,-2.999972 1.999987,0 0,0.999991 1.008993,0 0,-1.000019 -14.969063,0 0,3 -5.0089669,0 0,-2.999972 1.9999866,0 0,0.999991 1.0089937,0 0,-1.000019 -3.0090242,0 C 2.243,28.694002 0,26.451002 0,23.694002 0,21.281627 1.717297,19.262782 3.9935956,18.795766 l 0.0085,-0.0015 6.133e-4,-0.04828 C 4.1160824,14.286062 7.7792189,10.694007 12.266,10.694007 Z M 16.057053,0 32.000046,8.228968 31.082078,10.006 16.051072,2.2480372 0.90812766,9.9559511 4.6253272e-5,8.1729998 Z"
       inkscape:connector-curvature="0"
       style="fill:#ffffff" />
  </g>
</svg>
