<?xml version="1.0" encoding="UTF-8" standalone="no"?>
<svg
   xmlns:dc="http://purl.org/dc/elements/1.1/"
   xmlns:cc="http://creativecommons.org/ns#"
   xmlns:rdf="http://www.w3.org/1999/02/22-rdf-syntax-ns#"
   xmlns:svg="http://www.w3.org/2000/svg"
   xmlns="http://www.w3.org/2000/svg"
   xmlns:sodipodi="http://sodipodi.sourceforge.net/DTD/sodipodi-0.dtd"
   xmlns:inkscape="http://www.inkscape.org/namespaces/inkscape"
   height="20.312456"
   width="26"
   viewBox="0 0 26 20.312456"
   id="svg2"
   version="1.1"
   inkscape:version="0.91 r13725"
   sodipodi:docname="imgSalaEstar.svg">
  <metadata
     id="metadata11">
    <rdf:RDF>
      <cc:Work
         rdf:about="">
        <dc:format>image/svg+xml</dc:format>
        <dc:type
           rdf:resource="http://purl.org/dc/dcmitype/StillImage" />
        <dc:title></dc:title>
      </cc:Work>
    </rdf:RDF>
  </metadata>
  <defs
     id="defs9" />
  <sodipodi:namedview
     pagecolor="#ffffff"
     bordercolor="#666666"
     borderopacity="1"
     objecttolerance="10"
     gridtolerance="10"
     guidetolerance="10"
     inkscape:pageopacity="0"
     inkscape:pageshadow="2"
     inkscape:window-width="1366"
     inkscape:window-height="705"
     id="namedview7"
     showgrid="false"
     fit-margin-top="0"
     fit-margin-left="0"
     fit-margin-right="0"
     fit-margin-bottom="0"
     inkscape:zoom="4.9166667"
     inkscape:cx="-11.813559"
     inkscape:cy="9.952838"
     inkscape:window-x="-8"
     inkscape:window-y="-8"
     inkscape:window-maximized="1"
     inkscape:current-layer="svg2" />
  <g
     id="g4"
     transform="translate(-11,-13.843772)">
    <path
       id="path1"
       transform="matrix(0.8125,0,0,0.8125,11,13.843772)"
       d="m 7,14.999945 0,4 18,0 0,-4 z M 3.5,10 C 2.6730003,10 2,10.673 2,11.5 L 2,19 5,19 5,11.5 C 5,10.673 4.3269997,10 3.5,10 Z m 25.020996,-4.77e-5 C 27.684998,10.003004 27,10.675978 27,11.499952 l 0,7.499993 2.582992,0 0.419022,7e-6 -0.002,-7.5 C 30,10.675978 29.335999,10.003004 28.520996,9.9999523 Z M 8,2 c -2.2059994,5e-7 -4,1.7940001 -4,4 l 0,2.0362806 0.032324,0.00412 C 5.710577,8.2975394 7,9.7509379 7,11.5 l 0,1.499945 18,0 0,-1.499993 C 25,9.7572575 26.294342,8.3061042 27.980962,8.0426064 L 28,8.0401182 28,6 C 28,3.7940001 26.206,2.0000005 24,2 Z M 8,0 24,0 c 3.309,4.7683716e-7 6,2.6910005 6,6 l 0,2.336493 0.03501,0.016096 C 31.197713,8.9218715 32,10.120008 32,11.499952 l 0,7.5 c 0,1.103028 -0.897003,2 -2,2 l -2,0 0,3.999993 -2,0 0,-3.999993 -1,0 -18,-7e-6 L 6,21 l 0,3.999945 -2,0 L 4,21 2,21 C 0.89699936,21 0,20.103001 0,19 L 0,11.5 C 0,10.112813 0.81106377,8.911602 1.9839115,8.3456497 L 2,8.3383646 2,6 C 2,2.6910005 4.691,4.7683716e-7 8,0 Z"
       inkscape:connector-curvature="0"
       style="fill:#ffffff" />
  </g>
</svg>
