<?xml version="1.0" encoding="UTF-8" standalone="no"?>
<svg
   xmlns:dc="http://purl.org/dc/elements/1.1/"
   xmlns:cc="http://creativecommons.org/ns#"
   xmlns:rdf="http://www.w3.org/1999/02/22-rdf-syntax-ns#"
   xmlns:svg="http://www.w3.org/2000/svg"
   xmlns="http://www.w3.org/2000/svg"
   xmlns:sodipodi="http://sodipodi.sourceforge.net/DTD/sodipodi-0.dtd"
   xmlns:inkscape="http://www.inkscape.org/namespaces/inkscape"
   height="26"
   width="17.875799"
   viewBox="0 0 17.875799 26"
   id="svg2"
   version="1.1"
   inkscape:version="0.91 r13725"
   sodipodi:docname="imgSalaJantar.svg">
  <metadata
     id="metadata11">
    <rdf:RDF>
      <cc:Work
         rdf:about="">
        <dc:format>image/svg+xml</dc:format>
        <dc:type
           rdf:resource="http://purl.org/dc/dcmitype/StillImage" />
        <dc:title></dc:title>
      </cc:Work>
    </rdf:RDF>
  </metadata>
  <defs
     id="defs9" />
  <sodipodi:namedview
     pagecolor="#ffffff"
     bordercolor="#666666"
     borderopacity="1"
     objecttolerance="10"
     gridtolerance="10"
     guidetolerance="10"
     inkscape:pageopacity="0"
     inkscape:pageshadow="2"
     inkscape:window-width="1366"
     inkscape:window-height="705"
     id="namedview7"
     showgrid="false"
     fit-margin-top="0"
     fit-margin-left="0"
     fit-margin-right="0"
     fit-margin-bottom="0"
     inkscape:zoom="4.9166667"
     inkscape:cx="-15.87566"
     inkscape:cy="12.796611"
     inkscape:window-x="-8"
     inkscape:window-y="-8"
     inkscape:window-maximized="1"
     inkscape:current-layer="svg2" />
  <g
     id="g4"
     transform="translate(-15.0621,-11)">
    <path
       id="path1"
       transform="matrix(0.81249942,0,0,0.81249942,15.0621,11)"
       d="M 8.0000005,10.19617 7.8782196,10.2284 c -0.95474,0.242135 -1.9324026,0.363624 -2.9291916,0.363624 -0.8880339,0 -1.7906942,-0.09618 -2.7046041,-0.288959 L 2,10.247315 2,13.000024 c 0,0.552 0.4490004,1 1,1 0.2780008,0 0.5440006,0.116 0.7340002,0.32 0.1890001,0.205 0.2849999,0.479 0.2630005,0.757 l -1,13 C 3,29.103025 3.8970003,30.000024 5,30.000024 c 1.1030006,0 2.0000005,-0.896999 2.0000005,-2 l -0.9970002,-12.923 c -0.022,-0.278 0.074,-0.552 0.263,-0.757 0.19,-0.204 0.4560003,-0.32 0.7340002,-0.32 0.5510001,0 1,-0.448 1,-1 z M 20.001,2.9021585 C 15.087998,7.3771171 16.963998,18.49707 16.984994,18.619079 c 0.01601,0.08997 0.019,0.180967 0.011,0.273008 L 16.001,28.772054 c 0.02299,0.680968 0.584,1.227963 1.270996,1.227963 l 1.458001,0 c 0.699997,0 1.271003,-0.570982 1.271003,-1.270991 L 19.004998,18.4281 c -0.045,-0.464048 0.237,-0.89703 0.680001,-1.04504 L 20.001,17.279056 Z M 21.036999,6.3466669e-4 C 21.205749,0.00663133 21.372998,0.05512357 21.521996,0.14612685 21.818994,0.32813279 22.001,0.65112959 22.001,1.0001271 l 0,16.9999349 c 0,0.429991 -0.276001,0.812008 -0.685005,0.949032 l -0.243995,0.08099 0.923996,9.60293 c 0.005,1.900017 -1.462998,3.366991 -3.265999,3.366991 l -1.458001,0 c -1.804,0 -3.270996,-1.466974 -3.270996,-3.270983 0,-0.03302 0.001,-0.06598 0.004,-0.101013 l 0.987,-9.802942 C 14.731996,17.225103 12.849999,4.0641413 20.543,0.11011608 20.697999,0.03113685 20.868249,-0.00536203 21.036999,6.3466669e-4 Z M 1,2.4314644e-5 C 1.552,2.4301098e-5 2,0.4470243 2,1.0000241 l 0,7.1889183 0.2812433,0.073247 C 2.836319,8.3972382 3.3807392,8.4914079 3.9163771,8.5446667 L 4,8.5514121 4,2.0000243 c 0,-0.553 0.448,-1 1,-1.0000002 0.552,2e-7 1,0.4470002 1,1.0000002 L 6,8.5396075 6.2738004,8.5080809 C 6.7873125,8.4385381 7.2948556,8.3280377 7.798305,8.1765494 l 0.2016955,-0.064923 0,-7.111602 c 0,-0.5529998 0.4479999,-0.999999798902 1,-0.999999785356 C 9.5520005,2.4301098e-5 10,0.4470243 10,1.0000241 l 0,11.9999999 c 0,1.279001 -0.8049998,2.374 -1.9349995,2.805001 l 0.9319997,12.118 C 9.0000005,30.206024 7.2060003,32.000024 5,32.000024 c -2.2059994,0 -4,-1.794 -4,-4 L 1.9360008,15.805025 C 0.80500031,15.374024 0,14.279025 0,13.000024 L 0,1.0000241 C 0,0.4470243 0.44799995,2.4301098e-5 1,2.4314644e-5 Z"
       inkscape:connector-curvature="0"
       style="fill:#ffffff" />
  </g>
</svg>
